<svg xmlns="http://www.w3.org/2000/svg" version="1.1" xmlns:xlink="http://www.w3.org/1999/xlink" xmlns:svgjs="http://svgjs.dev/svgjs" width="200" height="100" preserveAspectRatio="none" viewBox="0 0 200 100"><g mask="url(&quot;#SvgjsMask1098&quot;)" fill="none"><rect width="200" height="100" x="0" y="0" fill="rgba(39, 183, 226, 1)"></rect><path d="M3 100L103 0L131.5 0L31.5 100z" fill="url(&quot;#SvgjsLinearGradient1099&quot;)"></path><path d="M72 100L172 0L265 0L165 100z" fill="url(&quot;#SvgjsLinearGradient1099&quot;)"></path><path d="M190 100L90 0L18 0L118 100z" fill="url(&quot;#SvgjsLinearGradient1100&quot;)"></path><path d="M132 100L32 0L12.5 0L112.5 100z" fill="url(&quot;#SvgjsLinearGradient1100&quot;)"></path><path d="M110.53491351407447 100L200 10.534913514074475L200 100z" fill="url(&quot;#SvgjsLinearGradient1099&quot;)"></path><path d="M0 100L89.46508648592553 100L 0 10.534913514074475z" fill="url(&quot;#SvgjsLinearGradient1100&quot;)"></path></g><defs><mask id="SvgjsMask1098"><rect width="200" height="100" fill="#ffffff"></rect></mask><linearGradient x1="0%" y1="100%" x2="100%" y2="0%" id="SvgjsLinearGradient1099"><stop stop-color="rgba(135, 240, 241, 1)" offset="0"></stop><stop stop-opacity="0" stop-color="rgba(135, 240, 241, 1)" offset="0.66"></stop></linearGradient><linearGradient x1="100%" y1="100%" x2="0%" y2="0%" id="SvgjsLinearGradient1100"><stop stop-color="rgba(135, 240, 241, 1)" offset="0"></stop><stop stop-opacity="0" stop-color="rgba(135, 240, 241, 1)" offset="0.66"></stop></linearGradient></defs></svg>