<svg xmlns="http://www.w3.org/2000/svg" version="1.1" xmlns:xlink="http://www.w3.org/1999/xlink" xmlns:svgjs="http://svgjs.dev/svgjs" width="1000" height="700" preserveAspectRatio="none" viewBox="0 0 1000 700"><g mask="url(&quot;#SvgjsMask1092&quot;)" fill="none"><rect width="1000" height="700" x="0" y="0" fill="rgba(255, 255, 255, 1)"></rect><path d="M-80.74 461.27L-80.74 461.27" stroke="rgba(19, 83, 101, 0.15)" stroke-width="1.5"></path><path d="M-80.74 461.27L-48.37 544.94" stroke="rgba(19, 83, 101, 0.15)" stroke-width="1.5"></path><path d="M-80.74 461.27L89.04 549.61" stroke="rgba(19, 83, 101, 0.15)" stroke-width="1.5"></path><path d="M-80.74 461.27L-40.98 665.23" stroke="rgba(19, 83, 101, 0.15)" stroke-width="1.5"></path><path d="M-80.74 461.27L161.13 413.55" stroke="rgba(19, 83, 101, 0.15)" stroke-width="1.5"></path><path d="M-80.74 461.27L208.17 555.91" stroke="rgba(19, 83, 101, 0.15)" stroke-width="1.5"></path><path d="M-48.37 544.94L-48.37 544.94" stroke="rgba(19, 83, 101, 0.15)" stroke-width="1.5"></path><path d="M-48.37 544.94L-40.98 665.23" stroke="rgba(19, 83, 101, 0.15)" stroke-width="1.5"></path><path d="M-48.37 544.94L89.04 549.61" stroke="rgba(19, 83, 101, 0.15)" stroke-width="1.5"></path><path d="M-48.37 544.94L90.2 717.72" stroke="rgba(19, 83, 101, 0.15)" stroke-width="1.5"></path><path d="M-48.37 544.94L161.13 413.55" stroke="rgba(19, 83, 101, 0.15)" stroke-width="1.5"></path><path d="M-48.37 544.94L208.17 555.91" stroke="rgba(19, 83, 101, 0.15)" stroke-width="1.5"></path><path d="M-40.98 665.23L-40.98 665.23" stroke="rgba(19, 83, 101, 0.15)" stroke-width="1.5"></path><path d="M-40.98 665.23L90.2 717.72" stroke="rgba(19, 83, 101, 0.15)" stroke-width="1.5"></path><path d="M-40.98 665.23L31.99 802.72" stroke="rgba(19, 83, 101, 0.15)" stroke-width="1.5"></path><path d="M-40.98 665.23L89.04 549.61" stroke="rgba(19, 83, 101, 0.15)" stroke-width="1.5"></path><path d="M-82.7 843.21L-82.7 843.21" stroke="rgba(19, 83, 101, 0.15)" stroke-width="1.5"></path><path d="M-82.7 843.21L31.99 802.72" stroke="rgba(19, 83, 101, 0.15)" stroke-width="1.5"></path><path d="M-82.7 843.21L-40.98 665.23" stroke="rgba(19, 83, 101, 0.15)" stroke-width="1.5"></path><path d="M-82.7 843.21L90.2 717.72" stroke="rgba(19, 83, 101, 0.15)" stroke-width="1.5"></path><path d="M-82.7 843.21L163.13 821.07" stroke="rgba(19, 83, 101, 0.15)" stroke-width="1.5"></path><path d="M89.04 549.61L89.04 549.61" stroke="rgba(19, 83, 101, 0.15)" stroke-width="1.5"></path><path d="M89.04 549.61L208.17 555.91" stroke="rgba(19, 83, 101, 0.15)" stroke-width="1.5"></path><path d="M89.04 549.61L161.13 413.55" stroke="rgba(19, 83, 101, 0.15)" stroke-width="1.5"></path><path d="M90.2 717.72L90.2 717.72" stroke="rgba(19, 83, 101, 0.15)" stroke-width="1.5"></path><path d="M90.2 717.72L189.68 715.4" stroke="rgba(19, 83, 101, 0.15)" stroke-width="1.5"></path><path d="M90.2 717.72L31.99 802.72" stroke="rgba(19, 83, 101, 0.15)" stroke-width="1.5"></path><path d="M90.2 717.72L163.13 821.07" stroke="rgba(19, 83, 101, 0.15)" stroke-width="1.5"></path><path d="M90.2 717.72L89.04 549.61" stroke="rgba(19, 83, 101, 0.15)" stroke-width="1.5"></path><path d="M31.99 802.72L31.99 802.72" stroke="rgba(19, 83, 101, 0.15)" stroke-width="1.5"></path><path d="M161.13 413.55L161.13 413.55" stroke="rgba(19, 83, 101, 0.15)" stroke-width="1.5"></path><path d="M161.13 413.55L288.4 417.23" stroke="rgba(19, 83, 101, 0.15)" stroke-width="1.5"></path><path d="M161.13 413.55L208.17 555.91" stroke="rgba(19, 83, 101, 0.15)" stroke-width="1.5"></path><path d="M161.13 413.55L321.91 541.34" stroke="rgba(19, 83, 101, 0.15)" stroke-width="1.5"></path><path d="M208.17 555.91L208.17 555.91" stroke="rgba(19, 83, 101, 0.15)" stroke-width="1.5"></path><path d="M208.17 555.91L321.91 541.34" stroke="rgba(19, 83, 101, 0.15)" stroke-width="1.5"></path><path d="M208.17 555.91L316.47 660.45" stroke="rgba(19, 83, 101, 0.15)" stroke-width="1.5"></path><path d="M189.68 715.4L189.68 715.4" stroke="rgba(19, 83, 101, 0.15)" stroke-width="1.5"></path><path d="M163.13 821.07L163.13 821.07" stroke="rgba(19, 83, 101, 0.15)" stroke-width="1.5"></path><path d="M163.13 821.07L189.68 715.4" stroke="rgba(19, 83, 101, 0.15)" stroke-width="1.5"></path><path d="M163.13 821.07L31.99 802.72" stroke="rgba(19, 83, 101, 0.15)" stroke-width="1.5"></path><path d="M163.13 821.07L327.22 799.6" stroke="rgba(19, 83, 101, 0.15)" stroke-width="1.5"></path><path d="M163.13 821.07L316.47 660.45" stroke="rgba(19, 83, 101, 0.15)" stroke-width="1.5"></path><path d="M288.4 417.23L288.4 417.23" stroke="rgba(19, 83, 101, 0.15)" stroke-width="1.5"></path><path d="M288.4 417.23L321.91 541.34" stroke="rgba(19, 83, 101, 0.15)" stroke-width="1.5"></path><path d="M288.4 417.23L419.74 338.19" stroke="rgba(19, 83, 101, 0.15)" stroke-width="1.5"></path><path d="M288.4 417.23L208.17 555.91" stroke="rgba(19, 83, 101, 0.15)" stroke-width="1.5"></path><path d="M288.4 417.23L452.82 467.36" stroke="rgba(19, 83, 101, 0.15)" stroke-width="1.5"></path><path d="M288.4 417.23L431.16 533.71" stroke="rgba(19, 83, 101, 0.15)" stroke-width="1.5"></path><path d="M321.91 541.34L321.91 541.34" stroke="rgba(19, 83, 101, 0.15)" stroke-width="1.5"></path><path d="M321.91 541.34L431.16 533.71" stroke="rgba(19, 83, 101, 0.15)" stroke-width="1.5"></path><path d="M321.91 541.34L316.47 660.45" stroke="rgba(19, 83, 101, 0.15)" stroke-width="1.5"></path><path d="M321.91 541.34L452.82 467.36" stroke="rgba(19, 83, 101, 0.15)" stroke-width="1.5"></path><path d="M316.47 660.45L316.47 660.45" stroke="rgba(19, 83, 101, 0.15)" stroke-width="1.5"></path><path d="M316.47 660.45L189.68 715.4" stroke="rgba(19, 83, 101, 0.15)" stroke-width="1.5"></path><path d="M327.22 799.6L327.22 799.6" stroke="rgba(19, 83, 101, 0.15)" stroke-width="1.5"></path><path d="M327.22 799.6L414.69 809.98" stroke="rgba(19, 83, 101, 0.15)" stroke-width="1.5"></path><path d="M327.22 799.6L316.47 660.45" stroke="rgba(19, 83, 101, 0.15)" stroke-width="1.5"></path><path d="M327.22 799.6L189.68 715.4" stroke="rgba(19, 83, 101, 0.15)" stroke-width="1.5"></path><path d="M327.22 799.6L467.76 703.31" stroke="rgba(19, 83, 101, 0.15)" stroke-width="1.5"></path><path d="M419.74 338.19L419.74 338.19" stroke="rgba(19, 83, 101, 0.15)" stroke-width="1.5"></path><path d="M419.74 338.19L452.82 467.36" stroke="rgba(19, 83, 101, 0.15)" stroke-width="1.5"></path><path d="M419.74 338.19L550.54 300.76" stroke="rgba(19, 83, 101, 0.15)" stroke-width="1.5"></path><path d="M419.74 338.19L559.33 443" stroke="rgba(19, 83, 101, 0.15)" stroke-width="1.5"></path><path d="M419.74 338.19L574.16 218.51" stroke="rgba(19, 83, 101, 0.15)" stroke-width="1.5"></path><path d="M452.82 467.36L452.82 467.36" stroke="rgba(19, 83, 101, 0.15)" stroke-width="1.5"></path><path d="M452.82 467.36L431.16 533.71" stroke="rgba(19, 83, 101, 0.15)" stroke-width="1.5"></path><path d="M452.82 467.36L559.33 443" stroke="rgba(19, 83, 101, 0.15)" stroke-width="1.5"></path><path d="M452.82 467.36L555.86 588.18" stroke="rgba(19, 83, 101, 0.15)" stroke-width="1.5"></path><path d="M431.16 533.71L431.16 533.71" stroke="rgba(19, 83, 101, 0.15)" stroke-width="1.5"></path><path d="M467.76 703.31L467.76 703.31" stroke="rgba(19, 83, 101, 0.15)" stroke-width="1.5"></path><path d="M467.76 703.31L575.69 664.71" stroke="rgba(19, 83, 101, 0.15)" stroke-width="1.5"></path><path d="M467.76 703.31L414.69 809.98" stroke="rgba(19, 83, 101, 0.15)" stroke-width="1.5"></path><path d="M467.76 703.31L540.14 818.13" stroke="rgba(19, 83, 101, 0.15)" stroke-width="1.5"></path><path d="M414.69 809.98L414.69 809.98" stroke="rgba(19, 83, 101, 0.15)" stroke-width="1.5"></path><path d="M574.16 218.51L574.16 218.51" stroke="rgba(19, 83, 101, 0.15)" stroke-width="1.5"></path><path d="M574.16 218.51L550.54 300.76" stroke="rgba(19, 83, 101, 0.15)" stroke-width="1.5"></path><path d="M574.16 218.51L656.98 328.57" stroke="rgba(19, 83, 101, 0.15)" stroke-width="1.5"></path><path d="M550.54 300.76L550.54 300.76" stroke="rgba(19, 83, 101, 0.15)" stroke-width="1.5"></path><path d="M550.54 300.76L656.98 328.57" stroke="rgba(19, 83, 101, 0.15)" stroke-width="1.5"></path><path d="M550.54 300.76L559.33 443" stroke="rgba(19, 83, 101, 0.15)" stroke-width="1.5"></path><path d="M550.54 300.76L452.82 467.36" stroke="rgba(19, 83, 101, 0.15)" stroke-width="1.5"></path><path d="M550.54 300.76L683.72 442.24" stroke="rgba(19, 83, 101, 0.15)" stroke-width="1.5"></path><path d="M559.33 443L559.33 443" stroke="rgba(19, 83, 101, 0.15)" stroke-width="1.5"></path><path d="M559.33 443L683.72 442.24" stroke="rgba(19, 83, 101, 0.15)" stroke-width="1.5"></path><path d="M559.33 443L555.86 588.18" stroke="rgba(19, 83, 101, 0.15)" stroke-width="1.5"></path><path d="M559.33 443L656.98 328.57" stroke="rgba(19, 83, 101, 0.15)" stroke-width="1.5"></path><path d="M559.33 443L431.16 533.71" stroke="rgba(19, 83, 101, 0.15)" stroke-width="1.5"></path><path d="M555.86 588.18L555.86 588.18" stroke="rgba(19, 83, 101, 0.15)" stroke-width="1.5"></path><path d="M555.86 588.18L575.69 664.71" stroke="rgba(19, 83, 101, 0.15)" stroke-width="1.5"></path><path d="M555.86 588.18L431.16 533.71" stroke="rgba(19, 83, 101, 0.15)" stroke-width="1.5"></path><path d="M555.86 588.18L467.76 703.31" stroke="rgba(19, 83, 101, 0.15)" stroke-width="1.5"></path><path d="M555.86 588.18L683.72 442.24" stroke="rgba(19, 83, 101, 0.15)" stroke-width="1.5"></path><path d="M575.69 664.71L575.69 664.71" stroke="rgba(19, 83, 101, 0.15)" stroke-width="1.5"></path><path d="M575.69 664.71L718 706.89" stroke="rgba(19, 83, 101, 0.15)" stroke-width="1.5"></path><path d="M540.14 818.13L540.14 818.13" stroke="rgba(19, 83, 101, 0.15)" stroke-width="1.5"></path><path d="M540.14 818.13L414.69 809.98" stroke="rgba(19, 83, 101, 0.15)" stroke-width="1.5"></path><path d="M540.14 818.13L575.69 664.71" stroke="rgba(19, 83, 101, 0.15)" stroke-width="1.5"></path><path d="M686.45 -87.41L686.45 -87.41" stroke="rgba(19, 83, 101, 0.15)" stroke-width="1.5"></path><path d="M686.45 -87.41L819.2 -58.06" stroke="rgba(19, 83, 101, 0.15)" stroke-width="1.5"></path><path d="M686.45 -87.41L700.24 62.82" stroke="rgba(19, 83, 101, 0.15)" stroke-width="1.5"></path><path d="M686.45 -87.41L837.64 74.24" stroke="rgba(19, 83, 101, 0.15)" stroke-width="1.5"></path><path d="M686.45 -87.41L716.79 157.72" stroke="rgba(19, 83, 101, 0.15)" stroke-width="1.5"></path><path d="M686.45 -87.41L954.86 -35.01" stroke="rgba(19, 83, 101, 0.15)" stroke-width="1.5"></path><path d="M700.24 62.82L700.24 62.82" stroke="rgba(19, 83, 101, 0.15)" stroke-width="1.5"></path><path d="M700.24 62.82L716.79 157.72" stroke="rgba(19, 83, 101, 0.15)" stroke-width="1.5"></path><path d="M700.24 62.82L837.64 74.24" stroke="rgba(19, 83, 101, 0.15)" stroke-width="1.5"></path><path d="M700.24 62.82L819.2 -58.06" stroke="rgba(19, 83, 101, 0.15)" stroke-width="1.5"></path><path d="M716.79 157.72L716.79 157.72" stroke="rgba(19, 83, 101, 0.15)" stroke-width="1.5"></path><path d="M716.79 157.72L802.48 199.01" stroke="rgba(19, 83, 101, 0.15)" stroke-width="1.5"></path><path d="M716.79 157.72L837.64 74.24" stroke="rgba(19, 83, 101, 0.15)" stroke-width="1.5"></path><path d="M716.79 157.72L803.73 281.67" stroke="rgba(19, 83, 101, 0.15)" stroke-width="1.5"></path><path d="M716.79 157.72L574.16 218.51" stroke="rgba(19, 83, 101, 0.15)" stroke-width="1.5"></path><path d="M716.79 157.72L656.98 328.57" stroke="rgba(19, 83, 101, 0.15)" stroke-width="1.5"></path><path d="M656.98 328.57L656.98 328.57" stroke="rgba(19, 83, 101, 0.15)" stroke-width="1.5"></path><path d="M656.98 328.57L683.72 442.24" stroke="rgba(19, 83, 101, 0.15)" stroke-width="1.5"></path><path d="M683.72 442.24L683.72 442.24" stroke="rgba(19, 83, 101, 0.15)" stroke-width="1.5"></path><path d="M718 706.89L718 706.89" stroke="rgba(19, 83, 101, 0.15)" stroke-width="1.5"></path><path d="M718 706.89L701.12 802.33" stroke="rgba(19, 83, 101, 0.15)" stroke-width="1.5"></path><path d="M701.12 802.33L701.12 802.33" stroke="rgba(19, 83, 101, 0.15)" stroke-width="1.5"></path><path d="M701.12 802.33L807.83 838.67" stroke="rgba(19, 83, 101, 0.15)" stroke-width="1.5"></path><path d="M701.12 802.33L540.14 818.13" stroke="rgba(19, 83, 101, 0.15)" stroke-width="1.5"></path><path d="M819.2 -58.06L819.2 -58.06" stroke="rgba(19, 83, 101, 0.15)" stroke-width="1.5"></path><path d="M819.2 -58.06L837.64 74.24" stroke="rgba(19, 83, 101, 0.15)" stroke-width="1.5"></path><path d="M819.2 -58.06L954.86 -35.01" stroke="rgba(19, 83, 101, 0.15)" stroke-width="1.5"></path><path d="M819.2 -58.06L961.43 47.02" stroke="rgba(19, 83, 101, 0.15)" stroke-width="1.5"></path><path d="M819.2 -58.06L716.79 157.72" stroke="rgba(19, 83, 101, 0.15)" stroke-width="1.5"></path><path d="M837.64 74.24L837.64 74.24" stroke="rgba(19, 83, 101, 0.15)" stroke-width="1.5"></path><path d="M837.64 74.24L961.43 47.02" stroke="rgba(19, 83, 101, 0.15)" stroke-width="1.5"></path><path d="M837.64 74.24L802.48 199.01" stroke="rgba(19, 83, 101, 0.15)" stroke-width="1.5"></path><path d="M837.64 74.24L929.73 168.51" stroke="rgba(19, 83, 101, 0.15)" stroke-width="1.5"></path><path d="M802.48 199.01L802.48 199.01" stroke="rgba(19, 83, 101, 0.15)" stroke-width="1.5"></path><path d="M802.48 199.01L803.73 281.67" stroke="rgba(19, 83, 101, 0.15)" stroke-width="1.5"></path><path d="M802.48 199.01L929.73 168.51" stroke="rgba(19, 83, 101, 0.15)" stroke-width="1.5"></path><path d="M803.73 281.67L803.73 281.67" stroke="rgba(19, 83, 101, 0.15)" stroke-width="1.5"></path><path d="M803.73 281.67L656.98 328.57" stroke="rgba(19, 83, 101, 0.15)" stroke-width="1.5"></path><path d="M813.67 443.61L813.67 443.61" stroke="rgba(19, 83, 101, 0.15)" stroke-width="1.5"></path><path d="M813.67 443.61L793.68 564.49" stroke="rgba(19, 83, 101, 0.15)" stroke-width="1.5"></path><path d="M813.67 443.61L935.09 411.27" stroke="rgba(19, 83, 101, 0.15)" stroke-width="1.5"></path><path d="M813.67 443.61L683.72 442.24" stroke="rgba(19, 83, 101, 0.15)" stroke-width="1.5"></path><path d="M813.67 443.61L803.73 281.67" stroke="rgba(19, 83, 101, 0.15)" stroke-width="1.5"></path><path d="M813.67 443.61L952.36 335.58" stroke="rgba(19, 83, 101, 0.15)" stroke-width="1.5"></path><path d="M813.67 443.61L656.98 328.57" stroke="rgba(19, 83, 101, 0.15)" stroke-width="1.5"></path><path d="M793.68 564.49L793.68 564.49" stroke="rgba(19, 83, 101, 0.15)" stroke-width="1.5"></path><path d="M793.68 564.49L816.5 656.87" stroke="rgba(19, 83, 101, 0.15)" stroke-width="1.5"></path><path d="M793.68 564.49L911.76 656.52" stroke="rgba(19, 83, 101, 0.15)" stroke-width="1.5"></path><path d="M793.68 564.49L718 706.89" stroke="rgba(19, 83, 101, 0.15)" stroke-width="1.5"></path><path d="M816.5 656.87L816.5 656.87" stroke="rgba(19, 83, 101, 0.15)" stroke-width="1.5"></path><path d="M816.5 656.87L911.76 656.52" stroke="rgba(19, 83, 101, 0.15)" stroke-width="1.5"></path><path d="M807.83 838.67L807.83 838.67" stroke="rgba(19, 83, 101, 0.15)" stroke-width="1.5"></path><path d="M807.83 838.67L718 706.89" stroke="rgba(19, 83, 101, 0.15)" stroke-width="1.5"></path><path d="M807.83 838.67L966.3 800.03" stroke="rgba(19, 83, 101, 0.15)" stroke-width="1.5"></path><path d="M807.83 838.67L816.5 656.87" stroke="rgba(19, 83, 101, 0.15)" stroke-width="1.5"></path><path d="M807.83 838.67L911.76 656.52" stroke="rgba(19, 83, 101, 0.15)" stroke-width="1.5"></path><path d="M807.83 838.67L1053.91 841.65" stroke="rgba(19, 83, 101, 0.15)" stroke-width="1.5"></path><path d="M954.86 -35.01L954.86 -35.01" stroke="rgba(19, 83, 101, 0.15)" stroke-width="1.5"></path><path d="M954.86 -35.01L961.43 47.02" stroke="rgba(19, 83, 101, 0.15)" stroke-width="1.5"></path><path d="M954.86 -35.01L1079.01 -79.17" stroke="rgba(19, 83, 101, 0.15)" stroke-width="1.5"></path><path d="M954.86 -35.01L837.64 74.24" stroke="rgba(19, 83, 101, 0.15)" stroke-width="1.5"></path><path d="M961.43 47.02L961.43 47.02" stroke="rgba(19, 83, 101, 0.15)" stroke-width="1.5"></path><path d="M961.43 47.02L929.73 168.51" stroke="rgba(19, 83, 101, 0.15)" stroke-width="1.5"></path><path d="M961.43 47.02L1084.13 92.28" stroke="rgba(19, 83, 101, 0.15)" stroke-width="1.5"></path><path d="M929.73 168.51L929.73 168.51" stroke="rgba(19, 83, 101, 0.15)" stroke-width="1.5"></path><path d="M929.73 168.51L1054.76 206.45" stroke="rgba(19, 83, 101, 0.15)" stroke-width="1.5"></path><path d="M952.36 335.58L952.36 335.58" stroke="rgba(19, 83, 101, 0.15)" stroke-width="1.5"></path><path d="M952.36 335.58L935.09 411.27" stroke="rgba(19, 83, 101, 0.15)" stroke-width="1.5"></path><path d="M952.36 335.58L1047.24 322.64" stroke="rgba(19, 83, 101, 0.15)" stroke-width="1.5"></path><path d="M952.36 335.58L1056.61 441.61" stroke="rgba(19, 83, 101, 0.15)" stroke-width="1.5"></path><path d="M952.36 335.58L803.73 281.67" stroke="rgba(19, 83, 101, 0.15)" stroke-width="1.5"></path><path d="M952.36 335.58L1054.76 206.45" stroke="rgba(19, 83, 101, 0.15)" stroke-width="1.5"></path><path d="M935.09 411.27L935.09 411.27" stroke="rgba(19, 83, 101, 0.15)" stroke-width="1.5"></path><path d="M935.09 411.27L1056.61 441.61" stroke="rgba(19, 83, 101, 0.15)" stroke-width="1.5"></path><path d="M935.09 411.27L1047.24 322.64" stroke="rgba(19, 83, 101, 0.15)" stroke-width="1.5"></path><path d="M935.09 411.27L803.73 281.67" stroke="rgba(19, 83, 101, 0.15)" stroke-width="1.5"></path><path d="M935.09 411.27L793.68 564.49" stroke="rgba(19, 83, 101, 0.15)" stroke-width="1.5"></path><path d="M911.76 656.52L911.76 656.52" stroke="rgba(19, 83, 101, 0.15)" stroke-width="1.5"></path><path d="M911.76 656.52L1038.27 676.12" stroke="rgba(19, 83, 101, 0.15)" stroke-width="1.5"></path><path d="M966.3 800.03L966.3 800.03" stroke="rgba(19, 83, 101, 0.15)" stroke-width="1.5"></path><path d="M966.3 800.03L1053.91 841.65" stroke="rgba(19, 83, 101, 0.15)" stroke-width="1.5"></path><path d="M966.3 800.03L1038.27 676.12" stroke="rgba(19, 83, 101, 0.15)" stroke-width="1.5"></path><path d="M966.3 800.03L911.76 656.52" stroke="rgba(19, 83, 101, 0.15)" stroke-width="1.5"></path><path d="M1079.01 -79.17L1079.01 -79.17" stroke="rgba(19, 83, 101, 0.15)" stroke-width="1.5"></path><path d="M1079.01 -79.17L1084.13 92.28" stroke="rgba(19, 83, 101, 0.15)" stroke-width="1.5"></path><path d="M1079.01 -79.17L961.43 47.02" stroke="rgba(19, 83, 101, 0.15)" stroke-width="1.5"></path><path d="M1079.01 -79.17L819.2 -58.06" stroke="rgba(19, 83, 101, 0.15)" stroke-width="1.5"></path><path d="M1079.01 -79.17L837.64 74.24" stroke="rgba(19, 83, 101, 0.15)" stroke-width="1.5"></path><path d="M1079.01 -79.17L1054.76 206.45" stroke="rgba(19, 83, 101, 0.15)" stroke-width="1.5"></path><path d="M1084.13 92.28L1084.13 92.28" stroke="rgba(19, 83, 101, 0.15)" stroke-width="1.5"></path><path d="M1084.13 92.28L1054.76 206.45" stroke="rgba(19, 83, 101, 0.15)" stroke-width="1.5"></path><path d="M1054.76 206.45L1054.76 206.45" stroke="rgba(19, 83, 101, 0.15)" stroke-width="1.5"></path><path d="M1054.76 206.45L1047.24 322.64" stroke="rgba(19, 83, 101, 0.15)" stroke-width="1.5"></path><path d="M1047.24 322.64L1047.24 322.64" stroke="rgba(19, 83, 101, 0.15)" stroke-width="1.5"></path><path d="M1047.24 322.64L1056.61 441.61" stroke="rgba(19, 83, 101, 0.15)" stroke-width="1.5"></path><path d="M1047.24 322.64L929.73 168.51" stroke="rgba(19, 83, 101, 0.15)" stroke-width="1.5"></path><path d="M1047.24 322.64L1084.13 92.28" stroke="rgba(19, 83, 101, 0.15)" stroke-width="1.5"></path><path d="M1056.61 441.61L1056.61 441.61" stroke="rgba(19, 83, 101, 0.15)" stroke-width="1.5"></path><path d="M1056.61 441.61L1054.76 206.45" stroke="rgba(19, 83, 101, 0.15)" stroke-width="1.5"></path><path d="M1038.27 676.12L1038.27 676.12" stroke="rgba(19, 83, 101, 0.15)" stroke-width="1.5"></path><path d="M1038.27 676.12L1053.91 841.65" stroke="rgba(19, 83, 101, 0.15)" stroke-width="1.5"></path><path d="M1053.91 841.65L1053.91 841.65" stroke="rgba(19, 83, 101, 0.15)" stroke-width="1.5"></path><path d="M1053.91 841.65L911.76 656.52" stroke="rgba(19, 83, 101, 0.15)" stroke-width="1.5"></path><circle r="5" cx="-80.74" cy="461.27" fill="rgba(19, 83, 101, 0.15)"></circle><circle r="5" cx="-48.37" cy="544.94" fill="rgba(19, 83, 101, 0.15)"></circle><circle r="5" cx="-40.98" cy="665.23" fill="rgba(19, 83, 101, 0.15)"></circle><circle r="5" cx="-82.7" cy="843.21" fill="rgba(19, 83, 101, 0.15)"></circle><circle r="5" cx="89.04" cy="549.61" fill="rgba(19, 83, 101, 0.15)"></circle><circle r="5" cx="90.2" cy="717.72" fill="rgba(19, 83, 101, 0.15)"></circle><circle r="5" cx="31.99" cy="802.72" fill="rgba(19, 83, 101, 0.15)"></circle><circle r="5" cx="161.13" cy="413.55" fill="rgba(19, 83, 101, 0.15)"></circle><circle r="5" cx="208.17" cy="555.91" fill="rgba(19, 83, 101, 0.15)"></circle><circle r="5" cx="189.68" cy="715.4" fill="rgba(19, 83, 101, 0.15)"></circle><circle r="5" cx="163.13" cy="821.07" fill="rgba(19, 83, 101, 0.15)"></circle><circle r="5" cx="288.4" cy="417.23" fill="rgba(19, 83, 101, 0.15)"></circle><circle r="5" cx="321.91" cy="541.34" fill="rgba(19, 83, 101, 0.15)"></circle><circle r="5" cx="316.47" cy="660.45" fill="rgba(19, 83, 101, 0.15)"></circle><circle r="5" cx="327.22" cy="799.6" fill="rgba(19, 83, 101, 0.15)"></circle><circle r="5" cx="419.74" cy="338.19" fill="rgba(19, 83, 101, 0.15)"></circle><circle r="5" cx="452.82" cy="467.36" fill="rgba(19, 83, 101, 0.15)"></circle><circle r="5" cx="431.16" cy="533.71" fill="rgba(19, 83, 101, 0.15)"></circle><circle r="5" cx="467.76" cy="703.31" fill="rgba(19, 83, 101, 0.15)"></circle><circle r="5" cx="414.69" cy="809.98" fill="rgba(19, 83, 101, 0.15)"></circle><circle r="5" cx="574.16" cy="218.51" fill="rgba(19, 83, 101, 0.15)"></circle><circle r="5" cx="550.54" cy="300.76" fill="rgba(19, 83, 101, 0.15)"></circle><circle r="5" cx="559.33" cy="443" fill="rgba(19, 83, 101, 0.15)"></circle><circle r="5" cx="555.86" cy="588.18" fill="rgba(19, 83, 101, 0.15)"></circle><circle r="5" cx="575.69" cy="664.71" fill="rgba(19, 83, 101, 0.15)"></circle><circle r="5" cx="540.14" cy="818.13" fill="rgba(19, 83, 101, 0.15)"></circle><circle r="5" cx="686.45" cy="-87.41" fill="rgba(19, 83, 101, 0.15)"></circle><circle r="5" cx="700.24" cy="62.82" fill="rgba(19, 83, 101, 0.15)"></circle><circle r="5" cx="716.79" cy="157.72" fill="rgba(19, 83, 101, 0.15)"></circle><circle r="5" cx="656.98" cy="328.57" fill="rgba(19, 83, 101, 0.15)"></circle><circle r="5" cx="683.72" cy="442.24" fill="rgba(19, 83, 101, 0.15)"></circle><circle r="5" cx="718" cy="706.89" fill="rgba(19, 83, 101, 0.15)"></circle><circle r="5" cx="701.12" cy="802.33" fill="rgba(19, 83, 101, 0.15)"></circle><circle r="5" cx="819.2" cy="-58.06" fill="rgba(19, 83, 101, 0.15)"></circle><circle r="5" cx="837.64" cy="74.24" fill="rgba(19, 83, 101, 0.15)"></circle><circle r="5" cx="802.48" cy="199.01" fill="rgba(19, 83, 101, 0.15)"></circle><circle r="5" cx="803.73" cy="281.67" fill="rgba(19, 83, 101, 0.15)"></circle><circle r="5" cx="813.67" cy="443.61" fill="rgba(19, 83, 101, 0.15)"></circle><circle r="5" cx="793.68" cy="564.49" fill="rgba(19, 83, 101, 0.15)"></circle><circle r="5" cx="816.5" cy="656.87" fill="rgba(19, 83, 101, 0.15)"></circle><circle r="5" cx="807.83" cy="838.67" fill="rgba(19, 83, 101, 0.15)"></circle><circle r="5" cx="954.86" cy="-35.01" fill="rgba(19, 83, 101, 0.15)"></circle><circle r="5" cx="961.43" cy="47.02" fill="rgba(19, 83, 101, 0.15)"></circle><circle r="5" cx="929.73" cy="168.51" fill="rgba(19, 83, 101, 0.15)"></circle><circle r="5" cx="952.36" cy="335.58" fill="rgba(19, 83, 101, 0.15)"></circle><circle r="5" cx="935.09" cy="411.27" fill="rgba(19, 83, 101, 0.15)"></circle><circle r="5" cx="911.76" cy="656.52" fill="rgba(19, 83, 101, 0.15)"></circle><circle r="5" cx="966.3" cy="800.03" fill="rgba(19, 83, 101, 0.15)"></circle><circle r="5" cx="1079.01" cy="-79.17" fill="rgba(19, 83, 101, 0.15)"></circle><circle r="5" cx="1084.13" cy="92.28" fill="rgba(19, 83, 101, 0.15)"></circle><circle r="5" cx="1054.76" cy="206.45" fill="rgba(19, 83, 101, 0.15)"></circle><circle r="5" cx="1047.24" cy="322.64" fill="rgba(19, 83, 101, 0.15)"></circle><circle r="5" cx="1056.61" cy="441.61" fill="rgba(19, 83, 101, 0.15)"></circle><circle r="5" cx="1038.27" cy="676.12" fill="rgba(19, 83, 101, 0.15)"></circle><circle r="5" cx="1053.91" cy="841.65" fill="rgba(19, 83, 101, 0.15)"></circle><path d="M340.72 797.19L340.72 797.19" stroke="hsla(197.29999999999995, 77.2%, 51.5%, 0.2)" stroke-width="1.5"></path><path d="M340.72 797.19L452.14 805.51" stroke="hsla(197.29999999999995, 77.2%, 51.5%, 0.2)" stroke-width="1.5"></path><path d="M340.72 797.19L288.53 658.54" stroke="hsla(197.29999999999995, 77.2%, 51.5%, 0.2)" stroke-width="1.5"></path><path d="M340.72 797.19L194.34 841.1" stroke="hsla(197.29999999999995, 77.2%, 51.5%, 0.2)" stroke-width="1.5"></path><path d="M340.72 797.19L459.56 684.31" stroke="hsla(197.29999999999995, 77.2%, 51.5%, 0.2)" stroke-width="1.5"></path><path d="M340.72 797.19L156.34 716.04" stroke="hsla(197.29999999999995, 77.2%, 51.5%, 0.2)" stroke-width="1.5"></path><path d="M340.72 797.19L423.21 568.39" stroke="hsla(197.29999999999995, 77.2%, 51.5%, 0.2)" stroke-width="1.5"></path><path d="M452.14 805.51L452.14 805.51" stroke="hsla(197.29999999999995, 77.2%, 51.5%, 0.2)" stroke-width="1.5"></path><path d="M452.14 805.51L459.56 684.31" stroke="hsla(197.29999999999995, 77.2%, 51.5%, 0.2)" stroke-width="1.5"></path><path d="M452.14 805.51L585.9 682.77" stroke="hsla(197.29999999999995, 77.2%, 51.5%, 0.2)" stroke-width="1.5"></path><path d="M452.14 805.51L288.53 658.54" stroke="hsla(197.29999999999995, 77.2%, 51.5%, 0.2)" stroke-width="1.5"></path><path d="M687.47 287.3L687.47 287.3" stroke="hsla(197.29999999999995, 77.2%, 51.5%, 0.2)" stroke-width="1.5"></path><path d="M687.47 287.3L801.76 336.15" stroke="hsla(197.29999999999995, 77.2%, 51.5%, 0.2)" stroke-width="1.5"></path><path d="M698.74 433.31L698.74 433.31" stroke="hsla(197.29999999999995, 77.2%, 51.5%, 0.2)" stroke-width="1.5"></path><path d="M698.74 433.31L804.09 412.55" stroke="hsla(197.29999999999995, 77.2%, 51.5%, 0.2)" stroke-width="1.5"></path><path d="M698.74 433.31L782.68 546.56" stroke="hsla(197.29999999999995, 77.2%, 51.5%, 0.2)" stroke-width="1.5"></path><path d="M698.74 433.31L801.76 336.15" stroke="hsla(197.29999999999995, 77.2%, 51.5%, 0.2)" stroke-width="1.5"></path><path d="M698.74 433.31L687.47 287.3" stroke="hsla(197.29999999999995, 77.2%, 51.5%, 0.2)" stroke-width="1.5"></path><path d="M658.47 582.88L658.47 582.88" stroke="hsla(197.29999999999995, 77.2%, 51.5%, 0.2)" stroke-width="1.5"></path><path d="M658.47 582.88L554.15 545.07" stroke="hsla(197.29999999999995, 77.2%, 51.5%, 0.2)" stroke-width="1.5"></path><path d="M658.47 582.88L696.02 697.38" stroke="hsla(197.29999999999995, 77.2%, 51.5%, 0.2)" stroke-width="1.5"></path><path d="M799.08 58.4L799.08 58.4" stroke="hsla(197.29999999999995, 77.2%, 51.5%, 0.2)" stroke-width="1.5"></path><path d="M799.08 58.4L838.83 175.97" stroke="hsla(197.29999999999995, 77.2%, 51.5%, 0.2)" stroke-width="1.5"></path><path d="M799.08 58.4L841.73 -74.75" stroke="hsla(197.29999999999995, 77.2%, 51.5%, 0.2)" stroke-width="1.5"></path><path d="M799.08 58.4L962.41 83.8" stroke="hsla(197.29999999999995, 77.2%, 51.5%, 0.2)" stroke-width="1.5"></path><path d="M799.08 58.4L961.28 -48.02" stroke="hsla(197.29999999999995, 77.2%, 51.5%, 0.2)" stroke-width="1.5"></path><path d="M799.08 58.4L687.47 287.3" stroke="hsla(197.29999999999995, 77.2%, 51.5%, 0.2)" stroke-width="1.5"></path><path d="M838.83 175.97L838.83 175.97" stroke="hsla(197.29999999999995, 77.2%, 51.5%, 0.2)" stroke-width="1.5"></path><path d="M838.83 175.97L962.41 83.8" stroke="hsla(197.29999999999995, 77.2%, 51.5%, 0.2)" stroke-width="1.5"></path><path d="M838.83 175.97L801.76 336.15" stroke="hsla(197.29999999999995, 77.2%, 51.5%, 0.2)" stroke-width="1.5"></path><path d="M838.83 175.97L687.47 287.3" stroke="hsla(197.29999999999995, 77.2%, 51.5%, 0.2)" stroke-width="1.5"></path><path d="M782.68 546.56L782.68 546.56" stroke="hsla(197.29999999999995, 77.2%, 51.5%, 0.2)" stroke-width="1.5"></path><path d="M782.68 546.56L658.47 582.88" stroke="hsla(197.29999999999995, 77.2%, 51.5%, 0.2)" stroke-width="1.5"></path><path d="M782.68 546.56L804.09 412.55" stroke="hsla(197.29999999999995, 77.2%, 51.5%, 0.2)" stroke-width="1.5"></path><path d="M782.68 546.56L809.02 690.73" stroke="hsla(197.29999999999995, 77.2%, 51.5%, 0.2)" stroke-width="1.5"></path><path d="M782.68 546.56L696.02 697.38" stroke="hsla(197.29999999999995, 77.2%, 51.5%, 0.2)" stroke-width="1.5"></path><path d="M782.68 546.56L956.19 581.87" stroke="hsla(197.29999999999995, 77.2%, 51.5%, 0.2)" stroke-width="1.5"></path><path d="M809.02 690.73L809.02 690.73" stroke="hsla(197.29999999999995, 77.2%, 51.5%, 0.2)" stroke-width="1.5"></path><path d="M809.02 690.73L696.02 697.38" stroke="hsla(197.29999999999995, 77.2%, 51.5%, 0.2)" stroke-width="1.5"></path><path d="M809.02 690.73L940.17 680.55" stroke="hsla(197.29999999999995, 77.2%, 51.5%, 0.2)" stroke-width="1.5"></path><path d="M962.41 83.8L962.41 83.8" stroke="hsla(197.29999999999995, 77.2%, 51.5%, 0.2)" stroke-width="1.5"></path><path d="M962.41 83.8L1053.99 77.03" stroke="hsla(197.29999999999995, 77.2%, 51.5%, 0.2)" stroke-width="1.5"></path><path d="M962.41 83.8L961.28 -48.02" stroke="hsla(197.29999999999995, 77.2%, 51.5%, 0.2)" stroke-width="1.5"></path><path d="M920.9 435.62L920.9 435.62" stroke="hsla(197.29999999999995, 77.2%, 51.5%, 0.2)" stroke-width="1.5"></path><path d="M920.9 435.62L1032.99 418.48" stroke="hsla(197.29999999999995, 77.2%, 51.5%, 0.2)" stroke-width="1.5"></path><path d="M920.9 435.62L968.24 330.34" stroke="hsla(197.29999999999995, 77.2%, 51.5%, 0.2)" stroke-width="1.5"></path><path d="M920.9 435.62L804.09 412.55" stroke="hsla(197.29999999999995, 77.2%, 51.5%, 0.2)" stroke-width="1.5"></path><path d="M920.9 435.62L956.19 581.87" stroke="hsla(197.29999999999995, 77.2%, 51.5%, 0.2)" stroke-width="1.5"></path><path d="M920.9 435.62L801.76 336.15" stroke="hsla(197.29999999999995, 77.2%, 51.5%, 0.2)" stroke-width="1.5"></path><path d="M1074.24 687.53L1074.24 687.53" stroke="hsla(197.29999999999995, 77.2%, 51.5%, 0.2)" stroke-width="1.5"></path><path d="M1074.24 687.53L1039.67 806.83" stroke="hsla(197.29999999999995, 77.2%, 51.5%, 0.2)" stroke-width="1.5"></path><path d="M1074.24 687.53L940.17 680.55" stroke="hsla(197.29999999999995, 77.2%, 51.5%, 0.2)" stroke-width="1.5"></path><path d="M1074.24 687.53L956.19 581.87" stroke="hsla(197.29999999999995, 77.2%, 51.5%, 0.2)" stroke-width="1.5"></path><path d="M1074.24 687.53L918.6 816.64" stroke="hsla(197.29999999999995, 77.2%, 51.5%, 0.2)" stroke-width="1.5"></path><path d="M1039.67 806.83L1039.67 806.83" stroke="hsla(197.29999999999995, 77.2%, 51.5%, 0.2)" stroke-width="1.5"></path><path d="M1039.67 806.83L918.6 816.64" stroke="hsla(197.29999999999995, 77.2%, 51.5%, 0.2)" stroke-width="1.5"></path><path d="M1039.67 806.83L940.17 680.55" stroke="hsla(197.29999999999995, 77.2%, 51.5%, 0.2)" stroke-width="1.5"></path><path d="M1039.67 806.83L956.19 581.87" stroke="hsla(197.29999999999995, 77.2%, 51.5%, 0.2)" stroke-width="1.5"></path><path d="M-61.23 592L-61.23 592" stroke="hsla(197.29999999999995, 77.2%, 51.5%, 0.2)" stroke-width="1.5"></path><path d="M-61.23 592L-47.22 689.79" stroke="hsla(197.29999999999995, 77.2%, 51.5%, 0.2)" stroke-width="1.5"></path><path d="M-61.23 592L74.31 668.69" stroke="hsla(197.29999999999995, 77.2%, 51.5%, 0.2)" stroke-width="1.5"></path><path d="M-61.23 592L-49.13 798.94" stroke="hsla(197.29999999999995, 77.2%, 51.5%, 0.2)" stroke-width="1.5"></path><path d="M-61.23 592L156.34 716.04" stroke="hsla(197.29999999999995, 77.2%, 51.5%, 0.2)" stroke-width="1.5"></path><path d="M-61.23 592L41.52 839.04" stroke="hsla(197.29999999999995, 77.2%, 51.5%, 0.2)" stroke-width="1.5"></path><path d="M-61.23 592L216.77 567.37" stroke="hsla(197.29999999999995, 77.2%, 51.5%, 0.2)" stroke-width="1.5"></path><path d="M-47.22 689.79L-47.22 689.79" stroke="hsla(197.29999999999995, 77.2%, 51.5%, 0.2)" stroke-width="1.5"></path><path d="M-47.22 689.79L-49.13 798.94" stroke="hsla(197.29999999999995, 77.2%, 51.5%, 0.2)" stroke-width="1.5"></path><path d="M-47.22 689.79L74.31 668.69" stroke="hsla(197.29999999999995, 77.2%, 51.5%, 0.2)" stroke-width="1.5"></path><path d="M-49.13 798.94L-49.13 798.94" stroke="hsla(197.29999999999995, 77.2%, 51.5%, 0.2)" stroke-width="1.5"></path><path d="M-49.13 798.94L41.52 839.04" stroke="hsla(197.29999999999995, 77.2%, 51.5%, 0.2)" stroke-width="1.5"></path><path d="M-49.13 798.94L74.31 668.69" stroke="hsla(197.29999999999995, 77.2%, 51.5%, 0.2)" stroke-width="1.5"></path><path d="M74.31 668.69L74.31 668.69" stroke="hsla(197.29999999999995, 77.2%, 51.5%, 0.2)" stroke-width="1.5"></path><path d="M74.31 668.69L156.34 716.04" stroke="hsla(197.29999999999995, 77.2%, 51.5%, 0.2)" stroke-width="1.5"></path><path d="M41.52 839.04L41.52 839.04" stroke="hsla(197.29999999999995, 77.2%, 51.5%, 0.2)" stroke-width="1.5"></path><path d="M41.52 839.04L194.34 841.1" stroke="hsla(197.29999999999995, 77.2%, 51.5%, 0.2)" stroke-width="1.5"></path><path d="M41.52 839.04L156.34 716.04" stroke="hsla(197.29999999999995, 77.2%, 51.5%, 0.2)" stroke-width="1.5"></path><path d="M41.52 839.04L74.31 668.69" stroke="hsla(197.29999999999995, 77.2%, 51.5%, 0.2)" stroke-width="1.5"></path><path d="M216.77 567.37L216.77 567.37" stroke="hsla(197.29999999999995, 77.2%, 51.5%, 0.2)" stroke-width="1.5"></path><path d="M216.77 567.37L288.53 658.54" stroke="hsla(197.29999999999995, 77.2%, 51.5%, 0.2)" stroke-width="1.5"></path><path d="M216.77 567.37L335.68 536.01" stroke="hsla(197.29999999999995, 77.2%, 51.5%, 0.2)" stroke-width="1.5"></path><path d="M216.77 567.37L156.34 716.04" stroke="hsla(197.29999999999995, 77.2%, 51.5%, 0.2)" stroke-width="1.5"></path><path d="M216.77 567.37L74.31 668.69" stroke="hsla(197.29999999999995, 77.2%, 51.5%, 0.2)" stroke-width="1.5"></path><path d="M216.77 567.37L423.21 568.39" stroke="hsla(197.29999999999995, 77.2%, 51.5%, 0.2)" stroke-width="1.5"></path><path d="M216.77 567.37L340.72 797.19" stroke="hsla(197.29999999999995, 77.2%, 51.5%, 0.2)" stroke-width="1.5"></path><path d="M156.34 716.04L156.34 716.04" stroke="hsla(197.29999999999995, 77.2%, 51.5%, 0.2)" stroke-width="1.5"></path><path d="M156.34 716.04L194.34 841.1" stroke="hsla(197.29999999999995, 77.2%, 51.5%, 0.2)" stroke-width="1.5"></path><path d="M194.34 841.1L194.34 841.1" stroke="hsla(197.29999999999995, 77.2%, 51.5%, 0.2)" stroke-width="1.5"></path><path d="M335.68 536.01L335.68 536.01" stroke="hsla(197.29999999999995, 77.2%, 51.5%, 0.2)" stroke-width="1.5"></path><path d="M335.68 536.01L423.21 568.39" stroke="hsla(197.29999999999995, 77.2%, 51.5%, 0.2)" stroke-width="1.5"></path><path d="M335.68 536.01L288.53 658.54" stroke="hsla(197.29999999999995, 77.2%, 51.5%, 0.2)" stroke-width="1.5"></path><path d="M335.68 536.01L459.56 684.31" stroke="hsla(197.29999999999995, 77.2%, 51.5%, 0.2)" stroke-width="1.5"></path><path d="M335.68 536.01L554.15 545.07" stroke="hsla(197.29999999999995, 77.2%, 51.5%, 0.2)" stroke-width="1.5"></path><path d="M335.68 536.01L550.56 423.5" stroke="hsla(197.29999999999995, 77.2%, 51.5%, 0.2)" stroke-width="1.5"></path><path d="M288.53 658.54L288.53 658.54" stroke="hsla(197.29999999999995, 77.2%, 51.5%, 0.2)" stroke-width="1.5"></path><path d="M423.21 568.39L423.21 568.39" stroke="hsla(197.29999999999995, 77.2%, 51.5%, 0.2)" stroke-width="1.5"></path><path d="M423.21 568.39L459.56 684.31" stroke="hsla(197.29999999999995, 77.2%, 51.5%, 0.2)" stroke-width="1.5"></path><path d="M423.21 568.39L554.15 545.07" stroke="hsla(197.29999999999995, 77.2%, 51.5%, 0.2)" stroke-width="1.5"></path><path d="M423.21 568.39L288.53 658.54" stroke="hsla(197.29999999999995, 77.2%, 51.5%, 0.2)" stroke-width="1.5"></path><path d="M423.21 568.39L550.56 423.5" stroke="hsla(197.29999999999995, 77.2%, 51.5%, 0.2)" stroke-width="1.5"></path><path d="M459.56 684.31L459.56 684.31" stroke="hsla(197.29999999999995, 77.2%, 51.5%, 0.2)" stroke-width="1.5"></path><path d="M550.56 423.5L550.56 423.5" stroke="hsla(197.29999999999995, 77.2%, 51.5%, 0.2)" stroke-width="1.5"></path><path d="M550.56 423.5L554.15 545.07" stroke="hsla(197.29999999999995, 77.2%, 51.5%, 0.2)" stroke-width="1.5"></path><path d="M550.56 423.5L698.74 433.31" stroke="hsla(197.29999999999995, 77.2%, 51.5%, 0.2)" stroke-width="1.5"></path><path d="M550.56 423.5L658.47 582.88" stroke="hsla(197.29999999999995, 77.2%, 51.5%, 0.2)" stroke-width="1.5"></path><path d="M550.56 423.5L687.47 287.3" stroke="hsla(197.29999999999995, 77.2%, 51.5%, 0.2)" stroke-width="1.5"></path><path d="M554.15 545.07L554.15 545.07" stroke="hsla(197.29999999999995, 77.2%, 51.5%, 0.2)" stroke-width="1.5"></path><path d="M554.15 545.07L585.9 682.77" stroke="hsla(197.29999999999995, 77.2%, 51.5%, 0.2)" stroke-width="1.5"></path><path d="M554.15 545.07L459.56 684.31" stroke="hsla(197.29999999999995, 77.2%, 51.5%, 0.2)" stroke-width="1.5"></path><path d="M554.15 545.07L698.74 433.31" stroke="hsla(197.29999999999995, 77.2%, 51.5%, 0.2)" stroke-width="1.5"></path><path d="M585.9 682.77L585.9 682.77" stroke="hsla(197.29999999999995, 77.2%, 51.5%, 0.2)" stroke-width="1.5"></path><path d="M585.9 682.77L696.02 697.38" stroke="hsla(197.29999999999995, 77.2%, 51.5%, 0.2)" stroke-width="1.5"></path><path d="M585.9 682.77L658.47 582.88" stroke="hsla(197.29999999999995, 77.2%, 51.5%, 0.2)" stroke-width="1.5"></path><path d="M696.02 697.38L696.02 697.38" stroke="hsla(197.29999999999995, 77.2%, 51.5%, 0.2)" stroke-width="1.5"></path><path d="M696.02 697.38L679.58 802.16" stroke="hsla(197.29999999999995, 77.2%, 51.5%, 0.2)" stroke-width="1.5"></path><path d="M679.58 802.16L679.58 802.16" stroke="hsla(197.29999999999995, 77.2%, 51.5%, 0.2)" stroke-width="1.5"></path><path d="M679.58 802.16L585.9 682.77" stroke="hsla(197.29999999999995, 77.2%, 51.5%, 0.2)" stroke-width="1.5"></path><path d="M679.58 802.16L809.02 690.73" stroke="hsla(197.29999999999995, 77.2%, 51.5%, 0.2)" stroke-width="1.5"></path><path d="M679.58 802.16L658.47 582.88" stroke="hsla(197.29999999999995, 77.2%, 51.5%, 0.2)" stroke-width="1.5"></path><path d="M679.58 802.16L452.14 805.51" stroke="hsla(197.29999999999995, 77.2%, 51.5%, 0.2)" stroke-width="1.5"></path><path d="M841.73 -74.75L841.73 -74.75" stroke="hsla(197.29999999999995, 77.2%, 51.5%, 0.2)" stroke-width="1.5"></path><path d="M841.73 -74.75L961.28 -48.02" stroke="hsla(197.29999999999995, 77.2%, 51.5%, 0.2)" stroke-width="1.5"></path><path d="M841.73 -74.75L962.41 83.8" stroke="hsla(197.29999999999995, 77.2%, 51.5%, 0.2)" stroke-width="1.5"></path><path d="M841.73 -74.75L1067.09 -84.85" stroke="hsla(197.29999999999995, 77.2%, 51.5%, 0.2)" stroke-width="1.5"></path><path d="M841.73 -74.75L838.83 175.97" stroke="hsla(197.29999999999995, 77.2%, 51.5%, 0.2)" stroke-width="1.5"></path><path d="M841.73 -74.75L1053.99 77.03" stroke="hsla(197.29999999999995, 77.2%, 51.5%, 0.2)" stroke-width="1.5"></path><path d="M801.76 336.15L801.76 336.15" stroke="hsla(197.29999999999995, 77.2%, 51.5%, 0.2)" stroke-width="1.5"></path><path d="M801.76 336.15L804.09 412.55" stroke="hsla(197.29999999999995, 77.2%, 51.5%, 0.2)" stroke-width="1.5"></path><path d="M804.09 412.55L804.09 412.55" stroke="hsla(197.29999999999995, 77.2%, 51.5%, 0.2)" stroke-width="1.5"></path><path d="M961.28 -48.02L961.28 -48.02" stroke="hsla(197.29999999999995, 77.2%, 51.5%, 0.2)" stroke-width="1.5"></path><path d="M961.28 -48.02L1067.09 -84.85" stroke="hsla(197.29999999999995, 77.2%, 51.5%, 0.2)" stroke-width="1.5"></path><path d="M968.24 330.34L968.24 330.34" stroke="hsla(197.29999999999995, 77.2%, 51.5%, 0.2)" stroke-width="1.5"></path><path d="M968.24 330.34L1045.3 315.29" stroke="hsla(197.29999999999995, 77.2%, 51.5%, 0.2)" stroke-width="1.5"></path><path d="M968.24 330.34L1032.99 418.48" stroke="hsla(197.29999999999995, 77.2%, 51.5%, 0.2)" stroke-width="1.5"></path><path d="M956.19 581.87L956.19 581.87" stroke="hsla(197.29999999999995, 77.2%, 51.5%, 0.2)" stroke-width="1.5"></path><path d="M956.19 581.87L940.17 680.55" stroke="hsla(197.29999999999995, 77.2%, 51.5%, 0.2)" stroke-width="1.5"></path><path d="M940.17 680.55L940.17 680.55" stroke="hsla(197.29999999999995, 77.2%, 51.5%, 0.2)" stroke-width="1.5"></path><path d="M940.17 680.55L918.6 816.64" stroke="hsla(197.29999999999995, 77.2%, 51.5%, 0.2)" stroke-width="1.5"></path><path d="M940.17 680.55L782.68 546.56" stroke="hsla(197.29999999999995, 77.2%, 51.5%, 0.2)" stroke-width="1.5"></path><path d="M918.6 816.64L918.6 816.64" stroke="hsla(197.29999999999995, 77.2%, 51.5%, 0.2)" stroke-width="1.5"></path><path d="M1067.09 -84.85L1067.09 -84.85" stroke="hsla(197.29999999999995, 77.2%, 51.5%, 0.2)" stroke-width="1.5"></path><path d="M1067.09 -84.85L1053.99 77.03" stroke="hsla(197.29999999999995, 77.2%, 51.5%, 0.2)" stroke-width="1.5"></path><path d="M1067.09 -84.85L962.41 83.8" stroke="hsla(197.29999999999995, 77.2%, 51.5%, 0.2)" stroke-width="1.5"></path><path d="M1053.99 77.03L1053.99 77.03" stroke="hsla(197.29999999999995, 77.2%, 51.5%, 0.2)" stroke-width="1.5"></path><path d="M1053.99 77.03L1039.61 209.32" stroke="hsla(197.29999999999995, 77.2%, 51.5%, 0.2)" stroke-width="1.5"></path><path d="M1053.99 77.03L961.28 -48.02" stroke="hsla(197.29999999999995, 77.2%, 51.5%, 0.2)" stroke-width="1.5"></path><path d="M1039.61 209.32L1039.61 209.32" stroke="hsla(197.29999999999995, 77.2%, 51.5%, 0.2)" stroke-width="1.5"></path><path d="M1039.61 209.32L1045.3 315.29" stroke="hsla(197.29999999999995, 77.2%, 51.5%, 0.2)" stroke-width="1.5"></path><path d="M1039.61 209.32L968.24 330.34" stroke="hsla(197.29999999999995, 77.2%, 51.5%, 0.2)" stroke-width="1.5"></path><path d="M1039.61 209.32L962.41 83.8" stroke="hsla(197.29999999999995, 77.2%, 51.5%, 0.2)" stroke-width="1.5"></path><path d="M1039.61 209.32L838.83 175.97" stroke="hsla(197.29999999999995, 77.2%, 51.5%, 0.2)" stroke-width="1.5"></path><path d="M1039.61 209.32L1032.99 418.48" stroke="hsla(197.29999999999995, 77.2%, 51.5%, 0.2)" stroke-width="1.5"></path><path d="M1045.3 315.29L1045.3 315.29" stroke="hsla(197.29999999999995, 77.2%, 51.5%, 0.2)" stroke-width="1.5"></path><path d="M1045.3 315.29L1032.99 418.48" stroke="hsla(197.29999999999995, 77.2%, 51.5%, 0.2)" stroke-width="1.5"></path><path d="M1032.99 418.48L1032.99 418.48" stroke="hsla(197.29999999999995, 77.2%, 51.5%, 0.2)" stroke-width="1.5"></path><circle r="25" cx="340.72" cy="797.19" fill="url(&quot;#SvgjsRadialGradient1093&quot;)"></circle><circle r="25" cx="452.14" cy="805.51" fill="url(&quot;#SvgjsRadialGradient1093&quot;)"></circle><circle r="25" cx="687.47" cy="287.3" fill="url(&quot;#SvgjsRadialGradient1093&quot;)"></circle><circle r="25" cx="698.74" cy="433.31" fill="url(&quot;#SvgjsRadialGradient1093&quot;)"></circle><circle r="25" cx="658.47" cy="582.88" fill="url(&quot;#SvgjsRadialGradient1093&quot;)"></circle><circle r="25" cx="799.08" cy="58.4" fill="url(&quot;#SvgjsRadialGradient1093&quot;)"></circle><circle r="25" cx="838.83" cy="175.97" fill="url(&quot;#SvgjsRadialGradient1093&quot;)"></circle><circle r="25" cx="782.68" cy="546.56" fill="url(&quot;#SvgjsRadialGradient1093&quot;)"></circle><circle r="25" cx="809.02" cy="690.73" fill="url(&quot;#SvgjsRadialGradient1093&quot;)"></circle><circle r="25" cx="962.41" cy="83.8" fill="url(&quot;#SvgjsRadialGradient1093&quot;)"></circle><circle r="25" cx="920.9" cy="435.62" fill="url(&quot;#SvgjsRadialGradient1093&quot;)"></circle><circle r="25" cx="1074.24" cy="687.53" fill="url(&quot;#SvgjsRadialGradient1093&quot;)"></circle><circle r="25" cx="1039.67" cy="806.83" fill="url(&quot;#SvgjsRadialGradient1093&quot;)"></circle><circle r="5" cx="-61.23" cy="592" fill="rgba(232, 243, 247, 0.6)"></circle><circle r="5" cx="-47.22" cy="689.79" fill="rgba(232, 243, 247, 0.6)"></circle><circle r="5" cx="-49.13" cy="798.94" fill="rgba(232, 243, 247, 0.6)"></circle><circle r="5" cx="74.31" cy="668.69" fill="rgba(232, 243, 247, 0.6)"></circle><circle r="5" cx="41.52" cy="839.04" fill="rgba(232, 243, 247, 0.6)"></circle><circle r="5" cx="216.77" cy="567.37" fill="rgba(232, 243, 247, 0.6)"></circle><circle r="5" cx="156.34" cy="716.04" fill="rgba(232, 243, 247, 0.6)"></circle><circle r="5" cx="194.34" cy="841.1" fill="rgba(232, 243, 247, 0.6)"></circle><circle r="5" cx="335.68" cy="536.01" fill="rgba(232, 243, 247, 0.6)"></circle><circle r="5" cx="288.53" cy="658.54" fill="rgba(232, 243, 247, 0.6)"></circle><circle r="5" cx="423.21" cy="568.39" fill="rgba(232, 243, 247, 0.6)"></circle><circle r="5" cx="459.56" cy="684.31" fill="rgba(232, 243, 247, 0.6)"></circle><circle r="5" cx="550.56" cy="423.5" fill="rgba(232, 243, 247, 0.6)"></circle><circle r="5" cx="554.15" cy="545.07" fill="rgba(232, 243, 247, 0.6)"></circle><circle r="5" cx="585.9" cy="682.77" fill="rgba(232, 243, 247, 0.6)"></circle><circle r="5" cx="696.02" cy="697.38" fill="rgba(232, 243, 247, 0.6)"></circle><circle r="5" cx="679.58" cy="802.16" fill="rgba(232, 243, 247, 0.6)"></circle><circle r="5" cx="841.73" cy="-74.75" fill="rgba(232, 243, 247, 0.6)"></circle><circle r="5" cx="801.76" cy="336.15" fill="rgba(232, 243, 247, 0.6)"></circle><circle r="5" cx="804.09" cy="412.55" fill="rgba(232, 243, 247, 0.6)"></circle><circle r="5" cx="961.28" cy="-48.02" fill="rgba(232, 243, 247, 0.6)"></circle><circle r="5" cx="968.24" cy="330.34" fill="rgba(232, 243, 247, 0.6)"></circle><circle r="5" cx="956.19" cy="581.87" fill="rgba(232, 243, 247, 0.6)"></circle><circle r="5" cx="940.17" cy="680.55" fill="rgba(232, 243, 247, 0.6)"></circle><circle r="5" cx="918.6" cy="816.64" fill="rgba(232, 243, 247, 0.6)"></circle><circle r="5" cx="1067.09" cy="-84.85" fill="rgba(232, 243, 247, 0.6)"></circle><circle r="5" cx="1053.99" cy="77.03" fill="rgba(232, 243, 247, 0.6)"></circle><circle r="5" cx="1039.61" cy="209.32" fill="rgba(232, 243, 247, 0.6)"></circle><circle r="5" cx="1045.3" cy="315.29" fill="rgba(232, 243, 247, 0.6)"></circle><circle r="5" cx="1032.99" cy="418.48" fill="rgba(232, 243, 247, 0.6)"></circle></g><defs><mask id="SvgjsMask1092"><rect width="1000" height="700" fill="#ffffff"></rect></mask><radialGradient id="SvgjsRadialGradient1093"><stop stop-color="#ffffff" offset="0.1"></stop><stop stop-color="rgba(23, 134, 179, 0.2)" offset="0.2"></stop><stop stop-color="rgba(23, 134, 179, 0)" offset="1"></stop></radialGradient></defs></svg>