<svg xmlns="http://www.w3.org/2000/svg" version="1.1" xmlns:xlink="http://www.w3.org/1999/xlink" xmlns:svgjs="http://svgjs.dev/svgjs" width="1440" height="200" preserveAspectRatio="none" viewBox="0 0 1440 200"><g mask="url(&quot;#SvgjsMask1038&quot;)" fill="none"><rect width="1440" height="200" x="0" y="0" fill="rgba(234, 244, 247, 1)"></rect><path d="M8 200L208 0L245.5 0L45.5 200z" fill="url(&quot;#SvgjsLinearGradient1039&quot;)"></path><path d="M242.60000000000002 200L442.6 0L520.6 0L320.6 200z" fill="url(&quot;#SvgjsLinearGradient1039&quot;)"></path><path d="M497.20000000000005 200L697.2 0L914.7 0L714.7 200z" fill="url(&quot;#SvgjsLinearGradient1039&quot;)"></path><path d="M743.8000000000001 200L943.8000000000001 0L991.8000000000001 0L791.8000000000001 200z" fill="url(&quot;#SvgjsLinearGradient1039&quot;)"></path><path d="M1419 200L1219 0L1022.5 0L1222.5 200z" fill="url(&quot;#SvgjsLinearGradient1040&quot;)"></path><path d="M1163.4 200L963.4000000000001 0L918.4000000000001 0L1118.4 200z" fill="url(&quot;#SvgjsLinearGradient1040&quot;)"></path><path d="M953.8 200L753.8 0L573.8 0L773.8 200z" fill="url(&quot;#SvgjsLinearGradient1040&quot;)"></path><path d="M710.1999999999999 200L510.19999999999993 0L210.19999999999993 0L410.19999999999993 200z" fill="url(&quot;#SvgjsLinearGradient1040&quot;)"></path><path d="M1268.3560246349098 200L1440 28.356024634909772L1440 200z" fill="url(&quot;#SvgjsLinearGradient1039&quot;)"></path><path d="M0 200L171.64397536509023 200L 0 28.356024634909772z" fill="url(&quot;#SvgjsLinearGradient1040&quot;)"></path></g><defs><mask id="SvgjsMask1038"><rect width="1440" height="200" fill="#ffffff"></rect></mask><linearGradient x1="0%" y1="100%" x2="100%" y2="0%" id="SvgjsLinearGradient1039"><stop stop-color="rgba(255, 255, 255, 1)" offset="0"></stop><stop stop-opacity="0" stop-color="rgba(255, 255, 255, 1)" offset="0.66"></stop></linearGradient><linearGradient x1="100%" y1="100%" x2="0%" y2="0%" id="SvgjsLinearGradient1040"><stop stop-color="rgba(255, 255, 255, 1)" offset="0"></stop><stop stop-opacity="0" stop-color="rgba(255, 255, 255, 1)" offset="0.66"></stop></linearGradient></defs></svg>